<?xml version="1.0" encoding="UTF-8" standalone="no"?>
<svg
   xmlns:dc="http://purl.org/dc/elements/1.1/"
   xmlns:cc="http://creativecommons.org/ns#"
   xmlns:rdf="http://www.w3.org/1999/02/22-rdf-syntax-ns#"
   xmlns:svg="http://www.w3.org/2000/svg"
   xmlns="http://www.w3.org/2000/svg"
   xmlns:sodipodi="http://sodipodi.sourceforge.net/DTD/sodipodi-0.dtd"
   xmlns:inkscape="http://www.inkscape.org/namespaces/inkscape"
   version="1.1"
   x="0px"
   y="0px"
   viewBox="0 0 100 100"
   enable-background="new 0 0 100 100"
   xml:space="preserve"
   id="svg12"
   sodipodi:docname="noun_No_Fishing.svg"
   width="100"
   height="100"
   inkscape:version="0.92.1 r15371"><metadata
     id="metadata18"><rdf:RDF><cc:Work
         rdf:about=""><dc:format>image/svg+xml</dc:format><dc:type
           rdf:resource="http://purl.org/dc/dcmitype/StillImage" /><dc:title></dc:title></cc:Work></rdf:RDF></metadata><defs
     id="defs16" /><sodipodi:namedview
     pagecolor="#ffffff"
     bordercolor="#666666"
     borderopacity="1"
     objecttolerance="10"
     gridtolerance="10"
     guidetolerance="10"
     inkscape:pageopacity="0"
     inkscape:pageshadow="2"
     inkscape:window-width="1366"
     inkscape:window-height="708"
     id="namedview14"
     showgrid="false"
     fit-margin-top="5"
     fit-margin-left="5"
     fit-margin-right="5"
     fit-margin-bottom="5"
     inkscape:zoom="1.888"
     inkscape:cx="49.69"
     inkscape:cy="37.5"
     inkscape:window-x="0"
     inkscape:window-y="31"
     inkscape:window-maximized="1"
     inkscape:current-layer="svg12" /><path
     d="m 79.318,37.503 c 0,0.97 0.372,1.802 1.372,2.214 v 13.51 c 0,2.316 -1.668,3.952 -3.742,3.952 C 75.142,57.179 73.604,56 73.28,54 h 1.144 L 70.69,44.496 v 8.731 c 0,3.445 2.793,6.042 6,6.042 3.207,0 6,-2.598 6,-6.042 V 39.812 c 1,-0.369 1.566,-1.263 1.566,-2.309 0,-1.046 -0.566,-1.941 -1.566,-2.31 v -3.234 c -0.25,-0.624 -1.656,-2.678 -2,-3.249 v 6.578 c -1,0.412 -1.372,1.245 -1.372,2.215 z"
     id="path2"
     inkscape:connector-curvature="0" /><path
     d="m 24.923,31.66 14.33,14.33 c -2.928,0.855 -3.966,5.154 -3.888,6.527 0.931,0.552 3.068,1.984 3.037,3.948 -0.02,0.828 -0.389,1.299 -0.695,1.555 -0.204,0.164 -0.43,0.276 -0.655,0.358 -0.399,0.133 -0.798,0.174 -1.125,0.174 0.02,0.082 0.051,0.164 0.072,0.245 0.389,1.258 0.747,2.444 0.992,3.539 1.411,0.675 7.814,3.907 10.483,8.908 0.511,0.961 1.125,2.352 0.45,3.273 -0.788,1.064 -2.72,0.706 -4.439,0.368 -0.654,-0.123 -1.657,-0.297 -1.902,-0.215 -0.205,0.072 -0.614,1.084 -0.931,1.769 -0.798,1.728 -1.698,3.651 -2.956,4.091 -0.153,0.051 -0.317,0.082 -0.491,0.092 -0.859,0.02 -1.616,-0.634 -2.332,-1.994 C 31.805,72.809 32.94,64.75 32.991,64.412 32.592,64.044 22.907,52.477 25.402,41.544 c -0.01,-0.031 -0.02,-0.061 -0.02,-0.092 0.031,-2.414 -0.849,-2.68 -1.964,-3.027 -0.849,-0.256 -1.913,-0.583 -2.209,-1.984 -0.304,-1.434 1.377,-3.154 3.714,-4.781 z m 42.371,7.571 c -4.427,3.277 -8.109,4.471 -15.355,5.391 L 34.081,26.764 c 0.081,-0.034 0.163,-0.07 0.241,-0.102 3.682,-2.751 9.859,-5.768 18.614,-6.28 10.493,-0.614 15.822,5.717 18.092,8.959 0.399,0.583 0.696,1.166 0.88,1.728 0.031,0.092 0.092,0.266 0.02,0.44 -0.051,0.112 -0.215,0.215 -0.327,0.266 -0.593,0.286 -0.798,0.481 -0.859,0.562 0.071,0.061 0.286,0.245 0.92,0.481 0.133,0.051 0.276,0.153 0.338,0.266 0.082,0.153 0.051,0.317 0.02,0.47 -0.42,1.811 -1.923,3.611 -4.726,5.677 z m -9.133,0.828 c 0.061,-0.317 -0.143,-0.624 -0.45,-0.685 -2.117,-0.43 -3.6,-1.34 -4.418,-2.731 -1.35,-2.291 -0.44,-5.175 -0.43,-5.206 0.092,-0.307 -0.072,-0.634 -0.378,-0.736 -0.307,-0.102 -0.634,0.072 -0.726,0.378 -0.051,0.133 -1.084,3.395 0.522,6.147 0.992,1.687 2.741,2.792 5.195,3.283 0.112,0.02 0.215,0.02 0.307,-0.02 0.184,-0.062 0.337,-0.225 0.378,-0.43 z m 6.556,-9.491 c -0.419,-1.197 -1.749,-1.841 -2.956,-1.422 -1.207,0.419 -1.841,1.749 -1.422,2.945 0.419,1.217 1.739,1.851 2.946,1.432 1.207,-0.418 1.851,-1.738 1.432,-2.955 z M 40.223,49.765 c 0.256,0.297 0.655,0.409 1.176,0.358 0.286,-0.031 0.624,-0.112 1.002,-0.245 0.17,-0.059 0.349,-0.13 0.533,-0.207 l -3.29,-3.29 c -0.127,1.092 -0.133,2.584 0.579,3.384 z M 62.139,30.226 c -0.612,0.213 -0.933,0.887 -0.721,1.494 0.213,0.617 0.882,0.939 1.494,0.726 0.612,-0.213 0.939,-0.882 0.726,-1.499 -0.213,-0.607 -0.887,-0.934 -1.499,-0.721 z"
     id="path4"
     inkscape:connector-curvature="0" /><path
     d="M 50,5 C 25.187,5 5,25.187 5,50 5,74.813 25.187,95 50,95 74.813,95 95,74.813 95,50 95,25.187 74.813,5 50,5 Z M 74.824,80.254 C 67.842,85.992 59.026,89.152 50,89.152 28.41,89.152 10.847,71.589 10.847,50 c 0,-9.027 3.16,-17.843 8.899,-24.823 l 0.716,-0.871 6.217,6.217 18.176,18.176 30.839,30.839 z M 80.517,74.49 79.803,75.378 49.497,45.072 32.083,27.658 24.622,20.197 25.51,19.483 c 6.925,-5.568 15.623,-8.635 24.49,-8.635 12.239,0 23.18,5.648 30.365,14.47 0.719,0.883 1.404,1.796 2.045,2.741 4.253,6.263 6.743,13.816 6.743,21.941 0,8.866 -3.067,17.563 -8.636,24.49 z"
     id="path6"
     inkscape:connector-curvature="0" /></svg>